<?xml version="1.0" encoding="utf-8"?>
<!-- Generator: Adobe Illustrator 27.5.0, SVG Export Plug-In . SVG Version: 6.00 Build 0)  -->
<svg version="1.1" id="Layer_1" xmlns="http://www.w3.org/2000/svg" xmlns:xlink="http://www.w3.org/1999/xlink" x="0px" y="0px"
	 viewBox="0 0 512 512" style="enable-background:new 0 0 512 512;" xml:space="preserve">
<g>
	<path d="M369,512c61.86,0,112-50.14,112-112s-50.14-112-112-112s-112,50.14-112,112S307.14,512,369,512z M422.73,368.22
		l-42.72,71.23c-6.82,11.37-21.56,15.05-32.93,8.23l-4.64-3.63l-24.77-24.74c-6.26-6.26-6.26-16.4,0-22.66s16.4-6.26,22.66,0
		l17.5,17.54l37.44-62.43c4.54-7.58,14.37-10.05,21.95-5.5S427.27,360.64,422.73,368.22z"/>
	<path d="M33,32C33,14.33,47.33,0,65,0h320c17.67,0,32,14.33,32,32v208c0,8.84-7.16,16-16,16s-16-7.16-16-16V32H65v448h96v-80
		c0-8.84,7.16-16,16-16h48v128H65c-17.67,0-32-14.33-32-32V32z"/>
	<path d="M113,64c-8.84,0-16,7.16-16,16v32c0,8.84,7.16,16,16,16h32c8.84,0,16-7.16,16-16V80c0-8.84-7.16-16-16-16H113z M209,64
		c-8.84,0-16,7.16-16,16v32c0,8.84,7.16,16,16,16h32c8.84,0,16-7.16,16-16V80c0-8.84-7.16-16-16-16H209z M305,64
		c-8.84,0-16,7.16-16,16v32c0,8.84,7.16,16,16,16h32c8.84,0,16-7.16,16-16V80c0-8.84-7.16-16-16-16H305z M113,160
		c-8.84,0-16,7.16-16,16v32c0,8.84,7.16,16,16,16h32c8.84,0,16-7.16,16-16v-32c0-8.84-7.16-16-16-16H113z M209,160
		c-8.84,0-16,7.16-16,16v32c0,8.84,7.16,16,16,16h32c8.84,0,16-7.16,16-16v-32c0-8.84-7.16-16-16-16H209z M305,160
		c-8.84,0-16,7.16-16,16v32c0,8.84,7.16,16,16,16h32c8.84,0,16-7.16,16-16v-32c0-8.84-7.16-16-16-16H305z M113,256
		c-8.84,0-16,7.16-16,16v32c0,8.84,7.16,16,16,16h32c8.84,0,16-7.16,16-16v-32c0-8.84-7.16-16-16-16H113z M209,256
		c-8.84,0-16,7.16-16,16v32c0,8.84,7.16,16,16,16h32c8.84,0,16-7.16,16-16v-32c0-8.84-7.16-16-16-16H209z"/>
</g>
</svg>
