<?xml version="1.0" encoding="iso-8859-1"?>
<!-- Uploaded to: SVG Repo, www.svgrepo.com, Generator: SVG Repo Mixer Tools -->
<svg height="800px" width="800px" version="1.1" id="Layer_1" xmlns="http://www.w3.org/2000/svg" xmlns:xlink="http://www.w3.org/1999/xlink" 
	 viewBox="0 0 512 512" xml:space="preserve">
<g transform="translate(1 1)">
	<path style="fill:#FD9808;" d="M272.067,178.2H485.4c5.12,0,8.533-3.413,8.533-8.533V152.6c0-5.12-3.413-8.533-8.533-8.533H272.067
		V178.2z"/>
	<path style="fill:#FFDD09;" d="M263.533,178.2H459.8c5.12,0,8.533-3.413,8.533-8.533V152.6c0-5.12-3.413-8.533-8.533-8.533H263.533
		V178.2z"/>
	<polygon style="fill:#FD9808;" points="272.067,502.467 476.867,502.467 476.867,178.2 272.067,178.2 	"/>
	<polygon style="fill:#FFDD09;" points="280.6,502.467 451.267,502.467 451.267,178.2 280.6,178.2 	"/>
	<path style="fill:#FD9808;" d="M272.067,58.733h-59.733c-9.387,0-17.067-7.68-17.067-17.067V24.6
		c0-9.387,7.68-17.067,17.067-17.067h59.733c9.387,0,17.067,7.68,17.067,17.067v17.067
		C289.133,51.053,281.453,58.733,272.067,58.733"/>
	<path style="fill:#FFFFFF;" d="M92.867,58.733H33.133c-9.387,0-17.067-7.68-17.067-17.067V24.6c0-9.387,7.68-17.067,17.067-17.067
		h59.733c9.387,0,17.067,7.68,17.067,17.067v17.067C109.933,51.053,102.253,58.733,92.867,58.733"/>
	<g>
		<polygon style="fill:#54C9FD;" points="408.6,246.467 442.733,246.467 442.733,212.333 408.6,212.333 		"/>
		<polygon style="fill:#54C9FD;" points="408.6,314.733 442.733,314.733 442.733,280.6 408.6,280.6 		"/>
		<polygon style="fill:#54C9FD;" points="408.6,383 442.733,383 442.733,348.867 408.6,348.867 		"/>
		<polygon style="fill:#54C9FD;" points="340.333,246.467 374.467,246.467 374.467,212.333 340.333,212.333 		"/>
		<polygon style="fill:#54C9FD;" points="340.333,314.733 374.467,314.733 374.467,280.6 340.333,280.6 		"/>
		<polygon style="fill:#54C9FD;" points="340.333,383 374.467,383 374.467,348.867 340.333,348.867 		"/>
		<polygon style="fill:#54C9FD;" points="272.067,246.467 306.2,246.467 306.2,212.333 272.067,212.333 		"/>
		<polygon style="fill:#54C9FD;" points="272.067,314.733 306.2,314.733 306.2,280.6 272.067,280.6 		"/>
		<polygon style="fill:#54C9FD;" points="272.067,383 306.2,383 306.2,348.867 272.067,348.867 		"/>
	</g>
	<path style="fill:#FFDD09;" d="M246.467,58.733H58.733c-9.387,0-17.067-7.68-17.067-17.067V24.6c0-9.387,7.68-17.067,17.067-17.067
		h187.733c9.387,0,17.067,7.68,17.067,17.067v17.067C263.533,51.053,255.853,58.733,246.467,58.733"/>
	<polygon style="fill:#FD9808;" points="33.133,502.467 272.067,502.467 272.067,58.733 33.133,58.733 	"/>
	<polygon style="fill:#FFDD09;" points="33.133,502.467 246.467,502.467 246.467,58.733 33.133,58.733 	"/>
	<polygon style="fill:#FFFFFF;" points="33.133,502.467 58.733,502.467 58.733,58.733 33.133,58.733 	"/>
	<polygon style="fill:#15A143;" points="92.867,502.467 212.333,502.467 212.333,400.067 92.867,400.067 	"/>
	<g>
		<polygon style="fill:#54C9FD;" points="67.267,135.533 101.4,135.533 101.4,101.4 67.267,101.4 		"/>
		<polygon style="fill:#54C9FD;" points="135.533,135.533 169.667,135.533 169.667,101.4 135.533,101.4 		"/>
		<polygon style="fill:#54C9FD;" points="203.8,135.533 237.933,135.533 237.933,101.4 203.8,101.4 		"/>
		<polygon style="fill:#54C9FD;" points="67.267,203.8 101.4,203.8 101.4,169.667 67.267,169.667 		"/>
		<polygon style="fill:#54C9FD;" points="135.533,203.8 169.667,203.8 169.667,169.667 135.533,169.667 		"/>
		<polygon style="fill:#54C9FD;" points="203.8,203.8 237.933,203.8 237.933,169.667 203.8,169.667 		"/>
		<polygon style="fill:#54C9FD;" points="67.267,272.067 101.4,272.067 101.4,237.933 67.267,237.933 		"/>
		<polygon style="fill:#54C9FD;" points="135.533,272.067 169.667,272.067 169.667,237.933 135.533,237.933 		"/>
		<polygon style="fill:#54C9FD;" points="203.8,272.067 237.933,272.067 237.933,237.933 203.8,237.933 		"/>
		<polygon style="fill:#54C9FD;" points="67.267,340.333 101.4,340.333 101.4,306.2 67.267,306.2 		"/>
		<polygon style="fill:#54C9FD;" points="135.533,340.333 169.667,340.333 169.667,306.2 135.533,306.2 		"/>
		<polygon style="fill:#54C9FD;" points="203.8,340.333 237.933,340.333 237.933,306.2 203.8,306.2 		"/>
	</g>
	<polygon style="fill:#1CD759;" points="92.867,502.467 186.733,502.467 186.733,400.067 92.867,400.067 	"/>
	<path d="M212.333,511H92.867c-5.12,0-8.533-3.413-8.533-8.533v-102.4c0-5.12,3.413-8.533,8.533-8.533h119.467
		c5.12,0,8.533,3.413,8.533,8.533v102.4C220.867,507.587,217.453,511,212.333,511z M101.4,493.933h102.4V408.6H101.4V493.933z"/>
	<path d="M272.067,511H33.133c-5.12,0-8.533-3.413-8.533-8.533V58.733c0-5.12,3.413-8.533,8.533-8.533h238.933
		c5.12,0,8.533,3.413,8.533,8.533v443.733C280.6,507.587,277.187,511,272.067,511z M41.667,493.933h221.867V67.267H41.667V493.933z"
		/>
	<path d="M272.067,67.267H33.133c-14.507,0-25.6-11.093-25.6-25.6V24.6c0-14.507,11.093-25.6,25.6-25.6h238.933
		c14.507,0,25.6,11.093,25.6,25.6v17.067C297.667,56.173,286.573,67.267,272.067,67.267z M33.133,16.067
		c-5.12,0-8.533,3.413-8.533,8.533v17.067c0,5.12,3.413,8.533,8.533,8.533h238.933c5.12,0,8.533-3.413,8.533-8.533V24.6
		c0-5.12-3.413-8.533-8.533-8.533H33.133z"/>
	<path d="M476.867,511h-204.8c-5.12,0-8.533-3.413-8.533-8.533V178.2c0-5.12,3.413-8.533,8.533-8.533h204.8
		c5.12,0,8.533,3.413,8.533,8.533v324.267C485.4,507.587,481.987,511,476.867,511z M280.6,493.933h187.733v-307.2H280.6V493.933z"/>
	<path d="M485.4,186.733H272.067c-5.12,0-8.533-3.413-8.533-8.533v-34.133c0-5.12,3.413-8.533,8.533-8.533H485.4
		c9.387,0,17.067,7.68,17.067,17.067v17.067C502.467,179.053,494.787,186.733,485.4,186.733z M280.6,169.667h204.8V152.6H280.6
		V169.667z"/>
	<path d="M101.4,144.067H67.267c-5.12,0-8.533-3.413-8.533-8.533V101.4c0-5.12,3.413-8.533,8.533-8.533H101.4
		c5.12,0,8.533,3.413,8.533,8.533v34.133C109.933,140.653,106.52,144.067,101.4,144.067z M75.8,127h17.067v-17.067H75.8V127z"/>
	<path d="M169.667,144.067h-34.133c-5.12,0-8.533-3.413-8.533-8.533V101.4c0-5.12,3.413-8.533,8.533-8.533h34.133
		c5.12,0,8.533,3.413,8.533,8.533v34.133C178.2,140.653,174.787,144.067,169.667,144.067z M144.067,127h17.067v-17.067h-17.067V127z
		"/>
	<path d="M237.933,144.067H203.8c-5.12,0-8.533-3.413-8.533-8.533V101.4c0-5.12,3.413-8.533,8.533-8.533h34.133
		c5.12,0,8.533,3.413,8.533,8.533v34.133C246.467,140.653,243.053,144.067,237.933,144.067z M212.333,127H229.4v-17.067h-17.067V127
		z"/>
	<path d="M101.4,212.333H67.267c-5.12,0-8.533-3.413-8.533-8.533v-34.133c0-5.12,3.413-8.533,8.533-8.533H101.4
		c5.12,0,8.533,3.413,8.533,8.533V203.8C109.933,208.92,106.52,212.333,101.4,212.333z M75.8,195.267h17.067V178.2H75.8V195.267z"/>
	<path d="M169.667,212.333h-34.133c-5.12,0-8.533-3.413-8.533-8.533v-34.133c0-5.12,3.413-8.533,8.533-8.533h34.133
		c5.12,0,8.533,3.413,8.533,8.533V203.8C178.2,208.92,174.787,212.333,169.667,212.333z M144.067,195.267h17.067V178.2h-17.067
		V195.267z"/>
	<path d="M237.933,212.333H203.8c-5.12,0-8.533-3.413-8.533-8.533v-34.133c0-5.12,3.413-8.533,8.533-8.533h34.133
		c5.12,0,8.533,3.413,8.533,8.533V203.8C246.467,208.92,243.053,212.333,237.933,212.333z M212.333,195.267H229.4V178.2h-17.067
		V195.267z"/>
	<path d="M101.4,280.6H67.267c-5.12,0-8.533-3.413-8.533-8.533v-34.133c0-5.12,3.413-8.533,8.533-8.533H101.4
		c5.12,0,8.533,3.413,8.533,8.533v34.133C109.933,277.187,106.52,280.6,101.4,280.6z M75.8,263.533h17.067v-17.067H75.8V263.533z"/>
	<path d="M169.667,280.6h-34.133c-5.12,0-8.533-3.413-8.533-8.533v-34.133c0-5.12,3.413-8.533,8.533-8.533h34.133
		c5.12,0,8.533,3.413,8.533,8.533v34.133C178.2,277.187,174.787,280.6,169.667,280.6z M144.067,263.533h17.067v-17.067h-17.067
		V263.533z"/>
	<path d="M237.933,280.6H203.8c-5.12,0-8.533-3.413-8.533-8.533v-34.133c0-5.12,3.413-8.533,8.533-8.533h34.133
		c5.12,0,8.533,3.413,8.533,8.533v34.133C246.467,277.187,243.053,280.6,237.933,280.6z M212.333,263.533H229.4v-17.067h-17.067
		V263.533z"/>
	<path d="M101.4,348.867H67.267c-5.12,0-8.533-3.413-8.533-8.533V306.2c0-5.12,3.413-8.533,8.533-8.533H101.4
		c5.12,0,8.533,3.413,8.533,8.533v34.133C109.933,345.453,106.52,348.867,101.4,348.867z M75.8,331.8h17.067v-17.067H75.8V331.8z"/>
	<path d="M169.667,348.867h-34.133c-5.12,0-8.533-3.413-8.533-8.533V306.2c0-5.12,3.413-8.533,8.533-8.533h34.133
		c5.12,0,8.533,3.413,8.533,8.533v34.133C178.2,345.453,174.787,348.867,169.667,348.867z M144.067,331.8h17.067v-17.067h-17.067
		V331.8z"/>
	<path d="M237.933,348.867H203.8c-5.12,0-8.533-3.413-8.533-8.533V306.2c0-5.12,3.413-8.533,8.533-8.533h34.133
		c5.12,0,8.533,3.413,8.533,8.533v34.133C246.467,345.453,243.053,348.867,237.933,348.867z M212.333,331.8H229.4v-17.067h-17.067
		V331.8z"/>
	<path d="M442.733,255H408.6c-5.12,0-8.533-3.413-8.533-8.533v-34.133c0-5.12,3.413-8.533,8.533-8.533h34.133
		c5.12,0,8.533,3.413,8.533,8.533v34.133C451.267,251.587,447.853,255,442.733,255z M417.133,237.933H434.2v-17.067h-17.067V237.933
		z"/>
	<path d="M442.733,323.267H408.6c-5.12,0-8.533-3.413-8.533-8.533V280.6c0-5.12,3.413-8.533,8.533-8.533h34.133
		c5.12,0,8.533,3.413,8.533,8.533v34.133C451.267,319.853,447.853,323.267,442.733,323.267z M417.133,306.2H434.2v-17.067h-17.067
		V306.2z"/>
	<path d="M442.733,391.533H408.6c-5.12,0-8.533-3.413-8.533-8.533v-34.133c0-5.12,3.413-8.533,8.533-8.533h34.133
		c5.12,0,8.533,3.413,8.533,8.533V383C451.267,388.12,447.853,391.533,442.733,391.533z M417.133,374.467H434.2V357.4h-17.067
		V374.467z"/>
	<path d="M374.467,255h-34.133c-5.12,0-8.533-3.413-8.533-8.533v-34.133c0-5.12,3.413-8.533,8.533-8.533h34.133
		c5.12,0,8.533,3.413,8.533,8.533v34.133C383,251.587,379.587,255,374.467,255z M348.867,237.933h17.067v-17.067h-17.067V237.933z"
		/>
	<path d="M374.467,323.267h-34.133c-5.12,0-8.533-3.413-8.533-8.533V280.6c0-5.12,3.413-8.533,8.533-8.533h34.133
		c5.12,0,8.533,3.413,8.533,8.533v34.133C383,319.853,379.587,323.267,374.467,323.267z M348.867,306.2h17.067v-17.067h-17.067
		V306.2z"/>
	<path d="M374.467,391.533h-34.133c-5.12,0-8.533-3.413-8.533-8.533v-34.133c0-5.12,3.413-8.533,8.533-8.533h34.133
		c5.12,0,8.533,3.413,8.533,8.533V383C383,388.12,379.587,391.533,374.467,391.533z M348.867,374.467h17.067V357.4h-17.067V374.467z
		"/>
	<path d="M306.2,255h-34.133c-5.12,0-8.533-3.413-8.533-8.533v-34.133c0-5.12,3.413-8.533,8.533-8.533H306.2
		c5.12,0,8.533,3.413,8.533,8.533v34.133C314.733,251.587,311.32,255,306.2,255z M280.6,237.933h17.067v-17.067H280.6V237.933z"/>
	<path d="M306.2,323.267h-34.133c-5.12,0-8.533-3.413-8.533-8.533V280.6c0-5.12,3.413-8.533,8.533-8.533H306.2
		c5.12,0,8.533,3.413,8.533,8.533v34.133C314.733,319.853,311.32,323.267,306.2,323.267z M280.6,306.2h17.067v-17.067H280.6V306.2z"
		/>
	<path d="M306.2,391.533h-34.133c-5.12,0-8.533-3.413-8.533-8.533v-34.133c0-5.12,3.413-8.533,8.533-8.533H306.2
		c5.12,0,8.533,3.413,8.533,8.533V383C314.733,388.12,311.32,391.533,306.2,391.533z M280.6,374.467h17.067V357.4H280.6V374.467z"/>
	<path d="M152.6,510.147c-5.12,0-8.533-3.413-8.533-8.533V400.067c0-5.12,3.413-8.533,8.533-8.533c5.12,0,8.533,3.413,8.533,8.533
		v101.547C161.133,505.88,157.72,510.147,152.6,510.147z"/>
	<path d="M169.667,459.8h-34.133c-5.12,0-8.533-3.413-8.533-8.533s3.413-8.533,8.533-8.533h34.133c5.12,0,8.533,3.413,8.533,8.533
		S174.787,459.8,169.667,459.8z"/>
</g>
</svg>