<?xml version="1.0" encoding="utf-8"?>
<!-- Uploaded to: SVG Repo, www.svgrepo.com, Generator: SVG Repo Mixer Tools -->
<svg fill="#000000" version="1.1" id="Layer_1" xmlns="http://www.w3.org/2000/svg" xmlns:xlink="http://www.w3.org/1999/xlink" 
	 width="800px" height="800px" viewBox="0 0 256 245" enable-background="new 0 0 256 245" xml:space="preserve">
<path d="M125.506,144.481c15.461,24.738-1.633,56.667-30.321,57.987l-0.05,0.047h-1.793H40.56h-0.003
	c-20.796,0-35.919-15.969-37.789-34.205c-0.809-7.888,0.859-16.201,5.627-23.829l42.748-68.397L19.538,25.515h94.826L82.758,76.084
	L125.506,144.481 M175.817,30.723c0,2.49,2.019,4.509,4.509,4.509s4.509-2.019,4.509-4.509s-2.019-4.509-4.509-4.509
	S175.817,28.233,175.817,30.723z M170.056,49.259c2.49,0,4.509,2.019,4.509,4.509c0,2.49-2.019,4.509-4.509,4.509
	s-4.509-2.019-4.509-4.509C165.547,51.278,167.566,49.259,170.056,49.259z M227.417,26.214c2.49,0,4.509,2.019,4.509,4.509
	s-2.019,4.509-4.509,4.509s-4.509-2.019-4.509-4.509S224.927,26.214,227.417,26.214z M179.324,71.552
	c2.49,0,4.509,2.019,4.509,4.509c0,2.49-2.019,4.509-4.509,4.509s-4.509-2.019-4.509-4.509
	C174.815,73.571,176.834,71.552,179.324,71.552z M228.169,71.051c2.49,0,4.509,2.019,4.509,4.509s-2.019,4.509-4.509,4.509
	c-2.49,0-4.509-2.019-4.509-4.509S225.679,71.051,228.169,71.051z M203.371,82.073c2.49,0,4.509,2.019,4.509,4.509
	c0,2.49-2.019,4.509-4.509,4.509s-4.509-2.019-4.509-4.509C198.862,84.091,200.881,82.073,203.371,82.073z M236.184,49.008
	c2.49,0,4.509,2.019,4.509,4.509s-2.019,4.509-4.509,4.509s-4.509-2.019-4.509-4.509S233.694,49.008,236.184,49.008z
	 M215.645,52.265c0,7.014-5.511,12.524-12.524,12.524s-12.524-5.511-12.524-12.524c0-5.761,3.757-10.52,8.767-12.023V17.948
	l3.757-5.761l3.757,5.761v22.293C212.138,41.744,215.645,46.504,215.645,52.265z M203.371,2.167c-28.555,0-51.6,23.045-51.6,51.6
	c0,21.542,13.276,40.078,32.062,47.843v14.779h13.526v87.117c0,11.272-9.017,20.289-20.289,20.289h-45.088v-12.745H2v31.782h129.231
	v-9.018h45.088c16.783,0,30.309-13.526,30.309-30.309v-87.117h15.28v-14.779c18.786-7.765,32.062-26.301,32.062-47.843
	C254.971,25.212,231.676,2.167,203.371,2.167z M203.371,97.352c-24.047,0-43.585-19.538-43.585-43.585
	c0-24.047,19.538-43.585,43.585-43.585c24.047,0,43.585,19.538,43.585,43.585C246.955,77.814,227.417,97.352,203.371,97.352z"/>
</svg>